{
  "accessors": [
    {
      "bufferView": 2,
      "componentType": 5126,
      "count": 587,
      "max": [
        3.261993408203125,
        38.02886962890625,
        42.024322509765625
      ],
      "min": [
        -3.261993408203125,
        8.62164306640625,
        -41.490264892578125
      ],
      "type": "VEC3"
    },
    {
      "bufferView": 2,
      "byteOffset": 7044,
      "componentType": 5126,
      "count": 587,
      "max": [
        1,
        1,
        1
      ],
      "min": [
        -1,
        -1,
        -1
      ],
      "type": "VEC3"
    },
    {
      "bufferView": 3,
      "componentType": 5126,
      "count": 587,
      "max": [
        1,
        1,
        1,
        1
      ],
      "min": [
        -1,
        -1,
        -1,
        -1
      ],
      "type": "VEC4"
    },
    {
      "bufferView": 3,
      "byteOffset": 9392,
      "componentType": 5126,
      "count": 587,
      "max": [
        0.15294118225574493,
        0,
        0,
        1
      ],
      "min": [
        0.15294118225574493,
        0,
        0,
        1
      ],
      "type": "VEC4"
    },
    {
      "bufferView": 1,
      "componentType": 5126,
      "count": 587,
      "max": [
        0.99178296327590942,
        0.15428650379180908
      ],
      "min": [
        0.74130058288574219,
        0.061218500137329102
      ],
      "type": "VEC2"
    },
    {
      "bufferView": 0,
      "componentType": 5125,
      "count": 1536,
      "max": [
        586
      ],
      "min": [
        0
      ],
      "type": "SCALAR"
    },
    {
      "bufferView": 2,
      "byteOffset": 14088,
      "componentType": 5126,
      "count": 7771,
      "max": [
        6.843818187713623,
        43.294952392578125,
        51.385910034179688
      ],
      "min": [
        -6.8438186645507812,
        -2.327117919921875,
        -51.38592529296875
      ],
      "type": "VEC3"
    },
    {
      "bufferView": 2,
      "byteOffset": 107340,
      "componentType": 5126,
      "count": 7771,
      "max": [
        1,
        1,
        1
      ],
      "min": [
        -1,
        -1,
        -1
      ],
      "type": "VEC3"
    },
    {
      "bufferView": 3,
      "byteOffset": 18784,
      "componentType": 5126,
      "count": 7771,
      "max": [
        1,
        1,
        1,
        1
      ],
      "min": [
        -1,
        -1,
        -1,
        -1
      ],
      "type": "VEC4"
    },
    {
      "bufferView": 3,
      "byteOffset": 143120,
      "componentType": 5126,
      "count": 7771,
      "max": [
        1,
        1,
        1,
        1
      ],
      "min": [
        0,
        0.30588236451148987,
        1,
        1
      ],
      "type": "VEC4"
    },
    {
      "bufferView": 1,
      "byteOffset": 4696,
      "componentType": 5126,
      "count": 7771,
      "max": [
        1.3670269250869751,
        0.99183559417724609
      ],
      "min": [
        -0.39409172534942627,
        0.0051009654998779297
      ],
      "type": "VEC2"
    },
    {
      "bufferView": 0,
      "byteOffset": 6144,
      "componentType": 5125,
      "count": 19746,
      "max": [
        7770
      ],
      "min": [
        0
      ],
      "type": "SCALAR"
    }
  ],
  "asset": {
    "extras": {
      "author": "Alex Bes (https://sketchfab.com/alexbescg)",
      "license": "CC-BY-4.0 (http://creativecommons.org/licenses/by/4.0/)",
      "source": "https://sketchfab.com/models/5849c107ecb7472bb1eef028f5b97f0d",
      "title": "Game Ready Japanese Small Vertical Neon Sign"
    },
    "generator": "Sketchfab-3.19.7",
    "version": "2.0"
  },
  "bufferViews": [
    {
      "buffer": 0,
      "byteLength": 85128,
      "byteOffset": 0,
      "name": "floatBufferViews",
      "target": 34963
    },
    {
      "buffer": 0,
      "byteLength": 66864,
      "byteOffset": 85128,
      "byteStride": 8,
      "name": "floatBufferViews",
      "target": 34962
    },
    {
      "buffer": 0,
      "byteLength": 200592,
      "byteOffset": 151992,
      "byteStride": 12,
      "name": "floatBufferViews",
      "target": 34962
    },
    {
      "buffer": 0,
      "byteLength": 267456,
      "byteOffset": 352584,
      "byteStride": 16,
      "name": "floatBufferViews",
      "target": 34962
    }
  ],
  "buffers": [
    {
      "byteLength": 620040,
      "uri": "scene.bin"
    }
  ],
  "images": [
    {
      "uri": "textures/neon_sign_unique_emissive.png"
    },
    {
      "uri": "textures/neon_sign_unique_metallicRoughness.png"
    },
    {
      "uri": "textures/neon_sign_unique_normal.png"
    },
    {
      "uri": "textures/neon_sign_unique_baseColor.png"
    },
    {
      "uri": "textures/neon_sign_tile_baseColor.png"
    },
    {
      "uri": "textures/neon_sign_tile_normal.png"
    },
    {
      "uri": "textures/neon_sign_tile_metallicRoughness.png"
    },
    {
      "uri": "textures/neon_sign_tile_emissive.png"
    }
  ],
  "materials": [
    {
      "doubleSided": true,
      "emissiveFactor": [
        1,
        1,
        1
      ],
      "emissiveTexture": {
        "index": 0,
        "texCoord": 0
      },
      "name": "neon_sign_unique",
      "normalTexture": {
        "index": 2,
        "scale": 1,
        "texCoord": 0
      },
      "occlusionTexture": {
        "index": 1,
        "strength": 1,
        "texCoord": 0
      },
      "pbrMetallicRoughness": {
        "baseColorFactor": [
          1,
          1,
          1,
          1
        ],
        "baseColorTexture": {
          "index": 3,
          "texCoord": 0
        },
        "metallicFactor": 1,
        "metallicRoughnessTexture": {
          "index": 1,
          "texCoord": 0
        },
        "roughnessFactor": 1
      }
    },
    {
      "doubleSided": true,
      "emissiveFactor": [
        1,
        1,
        1
      ],
      "emissiveTexture": {
        "index": 7,
        "texCoord": 0
      },
      "name": "neon_sign_tile",
      "normalTexture": {
        "index": 5,
        "scale": 1,
        "texCoord": 0
      },
      "pbrMetallicRoughness": {
        "baseColorFactor": [
          1,
          1,
          1,
          1
        ],
        "baseColorTexture": {
          "index": 4,
          "texCoord": 0
        },
        "metallicFactor": 1,
        "metallicRoughnessTexture": {
          "index": 6,
          "texCoord": 0
        },
        "roughnessFactor": 1
      }
    }
  ],
  "meshes": [
    {
      "name": "sign_neon_small_vert_neon_sign_unique_0",
      "primitives": [
        {
          "attributes": {
            "COLOR_0": 3,
            "NORMAL": 1,
            "POSITION": 0,
            "TANGENT": 2,
            "TEXCOORD_0": 4
          },
          "indices": 5,
          "material": 0,
          "mode": 4
        }
      ]
    },
    {
      "name": "sign_neon_small_vert_neon_sign_tile_0",
      "primitives": [
        {
          "attributes": {
            "COLOR_0": 9,
            "NORMAL": 7,
            "POSITION": 6,
            "TANGENT": 8,
            "TEXCOORD_0": 10
          },
          "indices": 11,
          "material": 1,
          "mode": 4
        }
      ]
    }
  ],
  "nodes": [
    {
      "children": [
        1
      ],
      "name": "RootNode (gltf orientation matrix)",
      "rotation": [
        -0.70710678118654746,
        -0,
        -0,
        0.70710678118654757
      ]
    },
    {
      "children": [
        2
      ],
      "name": "RootNode (model correction matrix)"
    },
    {
      "children": [
        3
      ],
      "matrix": [
        1,
        0,
        0,
        0,
        0,
        0,
        1,
        0,
        0,
        -1,
        0,
        0,
        0,
        0,
        0,
        1
      ],
      "name": "ede2dd68b7a348218510f03102a332dd.fbx"
    },
    {
      "children": [
        4
      ],
      "name": "RootNode"
    },
    {
      "children": [
        5,
        6
      ],
      "matrix": [
        1,
        0,
        0,
        0,
        0,
        2.2204460492503131e-16,
        -1,
        0,
        0,
        1,
        2.2204460492503131e-16,
        0,
        0,
        0,
        0,
        1
      ],
      "name": "sign_neon_small_vert"
    },
    {
      "mesh": 0,
      "name": "sign_neon_small_vert_neon_sign_unique_0"
    },
    {
      "mesh": 1,
      "name": "sign_neon_small_vert_neon_sign_tile_0"
    }
  ],
  "samplers": [
    {
      "magFilter": 9729,
      "minFilter": 9987,
      "wrapS": 10497,
      "wrapT": 10497
    }
  ],
  "scene": 0,
  "scenes": [
    {
      "name": "OSG_Scene",
      "nodes": [
        0
      ]
    }
  ],
  "textures": [
    {
      "sampler": 0,
      "source": 0
    },
    {
      "sampler": 0,
      "source": 1
    },
    {
      "sampler": 0,
      "source": 2
    },
    {
      "sampler": 0,
      "source": 3
    },
    {
      "sampler": 0,
      "source": 4
    },
    {
      "sampler": 0,
      "source": 5
    },
    {
      "sampler": 0,
      "source": 6
    },
    {
      "sampler": 0,
      "source": 7
    }
  ]
}

